<?xml version="1.0" standalone="yes"?>
<svg xmlns="http://www.w3.org/2000/svg">
<path style="fill:#010101; stroke:none;" d="M0 0L0 1578L3609 1578L3609 1577C3526.87 1577 3443.31 1559.34 3368 1526.58C3339.24 1514.07 3314.06 1495.28 3286 1482L3329.25 1395L3347 1358C3374.93 1373.49 3401.4 1390.16 3431 1402.58C3513.4 1437.15 3603.35 1449.36 3692 1439.83C3736.81 1435.02 3801.36 1419.09 3799.99 1363C3799.76 1353.88 3797.37 1344.6 3792.25 1337C3782.22 1322.1 3763.58 1315.31 3747 1310.58C3711.03 1300.31 3673.03 1297.53 3636 1293.83C3617.66 1292 3599.34 1290.13 3581 1288.17C3488.61 1278.27 3362.61 1256.71 3328.08 1156C3319.29 1130.37 3316.99 1102.89 3317 1076C3317.01 1040.43 3327.56 1003.76 3347.08 974C3377.94 926.945 3428.47 899.129 3481 882.975C3576.85 853.502 3686.62 858.277 3783 882.373C3820.48 891.742 3857.38 906.43 3891 925.424C3898.74 929.8 3919.37 937.623 3922.76 946.184C3924 949.323 3921.09 953.314 3919.75 956C3916.12 963.276 3912.88 970.723 3909.25 978C3895.01 1006.48 3880.24 1035.61 3868 1065C3843.23 1051.21 3819.6 1037.08 3793 1026.81C3724.1 1000.21 3642.99 990.574 3570 1003.25C3528.88 1010.39 3474.17 1028.83 3478.93 1080C3479.82 1089.64 3482.5 1098.42 3488.81 1105.96C3499.03 1118.18 3515.13 1124.18 3530 1128.42C3558.62 1136.59 3588.46 1140.22 3618 1143.17C3706.24 1151.99 3807.45 1155.14 3885 1203.43C3982.56 1264.16 3986.89 1424.63 3905 1500.91C3841.48 1560.08 3743.93 1577 3660 1577L3660 1578L4716 1578L4716 0L1214 0L1214 1C1320.87 1 1432.86 53.3424 1497.1 139C1595.33 269.961 1589.49 481.229 1474.96 601C1442.45 634.999 1404.02 661.271 1361 680.139C1313.26 701.077 1258.12 713 1206 713L1254 634L1276 596C1228.68 582.572 1181.91 564.124 1137 544.139C1118.49 535.902 1100.67 525.774 1082 518L1082 703C980.771 676.799 891.906 621.195 843.809 525C785.644 408.67 793.646 253.938 868.721 147C900.491 101.746 943.732 66.3872 993 41.7531C1020.15 28.1769 1051.66 14.9176 1082 11L1082 195L1111 181.309L1170 155.424L1276 117C1272.27 106.819 1264.78 97.2999 1259.2 88C1247.55 68.5825 1235.64 49.309 1223.81 30C1219.3 22.642 1212.6 4.27612 1204.62 0.603394C1198.87 -2.04297 1188.28 0 1182 0L1128 0L936 0L0 0z"/>
<path style="fill:#3f49cd; stroke:none;" d="M1206 0L1227.58 37L1276 117C1228.51 132.453 1181.82 149.491 1136 169.424C1117.76 177.361 1100.34 187.366 1082 195L1082 11C1050.99 13.4684 1017.46 29.0237 990 42.7531C956.382 59.5623 925.068 81.7793 899.039 109C811.994 200.031 787.427 339.359 818.884 459C851.747 583.989 955.262 678.422 1082 703L1082 518C1118.22 539.142 1158.89 554.547 1198 569.424C1223.19 579.008 1249.55 590.525 1276 596C1256.87 636.924 1223.87 671.535 1206 713C1256.9 713 1308.84 701.48 1356 682.6C1419.78 657.066 1475.14 612.117 1511.95 554C1586.69 435.983 1584.36 264.17 1504.97 149C1439.24 53.6353 1320.58 0.316162 1206 0M1 12L1 702L152 702L152 204C163.198 213.94 171.396 229.03 180.373 241C200.095 267.295 219.653 293.706 239.373 320C302.004 403.508 363.996 487.492 426.627 571C450.315 602.585 473.685 634.416 497.373 666L516.127 691C518.608 694.309 521.343 699.694 525.3 701.397C535.969 705.986 556.363 702 568 702L671 702L671 12L519 12L519 454L282.373 137L219 52L198.873 25L188.826 13.0277L173 12L136 12L1 12M1701 12L1701 97C1839.63 102.955 1984.97 128.236 2110 190.753C2173.69 222.6 2234.27 268.005 2252 340L1701 340L1701 374L2252 374C2247.14 389.358 2243.72 403.757 2235.57 418C2207.19 467.589 2154.77 500.363 2105 525.247C2019.2 568.146 1923.49 590.655 1829 604.271C1786.9 610.337 1743.53 616 1701 616L1701 702L1956 702C2054.43 702 2152.82 700.53 2239 645.947C2343.91 579.499 2388.3 454.001 2380.09 334C2372.24 219.336 2324.98 110.478 2218 55.2585C2134.3 12.0564 2045.71 12 1954 12L1701 12M2518 12L2518 702L3142 702L3142 566L2676 566L2676 423L3076 423L3076 287L2676 287L2676 148L3142 148L3142 12L2518 12z"/>
<path style="fill:#010101; stroke:none;" d="M936 340L1403 340C1403 278.655 1370.55 215.958 1321 180.294C1308.79 171.505 1287.71 155.416 1272 155.198C1266.08 155.115 1259.54 158.485 1254 160.333C1240.89 164.703 1227.96 169.528 1215 174.319C1164.07 193.148 1114.7 215.829 1067 241.691C1032.41 260.445 998.262 281.485 968 306.754C957.219 315.756 941.593 326.791 936 340M936 374C942.39 387.721 958.489 399.035 970 408.389C999.703 432.527 1032.49 452.904 1066 471.306C1113.29 497.276 1162.53 519.386 1213 538.424C1225.27 543.053 1237.74 547.165 1250 551.808C1256.4 554.232 1265.07 558.764 1272 558.606C1287.21 558.258 1306.95 542.858 1319 534.656C1369.62 500.188 1402.99 435.319 1403 374L936 374z"/>
<path style="fill:#3f49cd; stroke:none;" d="M3347 1358L3303.75 1445L3286 1482C3380.74 1545.91 3491.29 1572.1 3604 1577.04C3667.18 1579.81 3732.69 1576.62 3794 1559.58C3836.68 1547.71 3879.87 1528.47 3910.96 1496C3964.49 1440.11 3975.65 1345.84 3947.55 1275C3929.46 1229.4 3890.15 1201.46 3846 1183.8C3774.41 1155.17 3694.82 1150.75 3619 1143.17C3579.61 1139.23 3525.51 1137.38 3494.04 1110.38C3471.43 1090.99 3474.95 1054.68 3495.01 1035.04C3514.8 1015.67 3543.57 1008.19 3570 1003.42C3642.43 990.361 3722.49 1000.58 3791 1026.43C3807.02 1032.47 3823.02 1039.55 3838 1047.86C3847.8 1053.3 3857.57 1061.05 3868 1065C3884.14 1037.35 3895.44 1006.62 3909.75 978C3913.03 971.439 3925.48 953.296 3923.29 946.184C3920.7 937.78 3899.32 929.558 3892 925.424C3858.71 906.618 3822.12 891.908 3785 882.627C3690.75 859.057 3585.43 854.273 3491 879.849C3438.67 894.023 3387.87 919.115 3354.24 963C3331.71 992.386 3321.31 1026.63 3317.83 1063C3315.82 1084.01 3316.87 1106.2 3320.61 1127C3323.24 1141.54 3326.81 1156.64 3333.26 1170C3356.3 1217.75 3398.93 1244.97 3448 1261.33C3508.4 1281.47 3572.07 1287.54 3635 1293.83C3671.63 1297.49 3709.43 1300.08 3745 1310.29C3760.31 1314.69 3777.83 1320.55 3788.54 1333.04C3809.13 1357.05 3800.4 1393.05 3777 1411.48C3753.42 1430.06 3721.91 1435.59 3693 1439.57C3605.75 1451.59 3514.03 1436.43 3433 1402.99C3414.48 1395.35 3396.44 1386.43 3379 1376.58C3368.54 1370.66 3358.21 1362.24 3347 1358M1701 876L1701 1566L2055 1566C2136.35 1566 2220.55 1570.17 2295 1531.74C2381.87 1486.9 2407.61 1358.33 2355.3 1278C2333.22 1244.09 2292.31 1220.14 2253 1212C2285.14 1195.06 2314.7 1183.34 2335.3 1151C2371.35 1094.43 2366.16 1006.82 2327.25 953C2310.24 929.47 2285.56 911.797 2259 900.427C2189.61 870.729 2112.7 876 2039 876L1701 876M2445 1566L2565 1566L2597 1566L2609.5 1564.97L2615.2 1554L2626.72 1527L2671.2 1422L2828 1038L2848.2 1088L2887.81 1188L2985.58 1425L3028.72 1527L3040.15 1554L3045.7 1564.97L3058 1566L3091 1566L3218 1566C3195.67 1508.43 3167.83 1452.48 3142.86 1396C3092.45 1281.98 3041.04 1168.37 2991.42 1054C2972.42 1010.19 2952.43 966.809 2933.42 923C2928.49 911.635 2923.37 900.359 2918.42 889C2916.92 885.541 2915.21 878.373 2911.58 876.603C2903.2 872.515 2885.34 876 2876 876L2787 876L2760 876C2756.82 876 2752.24 875.228 2749.7 877.603C2745.39 881.631 2743.29 890.647 2741 896C2735.54 908.733 2729.74 921.329 2724.14 934L2662.14 1074C2612.32 1186.67 2561.6 1298.98 2512.58 1412C2498.22 1445.1 2483.52 1478.11 2468.69 1511C2460.71 1528.71 2450.12 1547.27 2445 1566M4091 876L4091 1566L4715 1566L4715 1430L4249 1430L4249 1287L4649 1287L4649 1151L4249 1151L4249 1012L4715 1012L4715 876L4091 876z"/>
<path style="fill:#010101; stroke:none;" d="M1859 1012L1859 1151L2098 1151C2129.58 1151 2172.04 1150.97 2191.45 1121C2217.51 1080.77 2194.76 1025.68 2149 1015.43C2115.73 1007.97 2078.94 1012 2045 1012L1859 1012M1859 1287L1859 1430L2052 1430C2088.38 1430 2127.18 1433.76 2163 1426.55C2177.38 1423.66 2192.5 1417.67 2202.83 1406.91C2222.81 1386.09 2224.98 1346.79 2211.68 1322C2193.22 1287.61 2148.85 1287 2115 1287L1859 1287z"/>
</svg>
